<?xml version="1.0" encoding="iso-8859-1"?>
<!-- Generator: Adobe Illustrator 19.0.0, SVG Export Plug-In . SVG Version: 6.00 Build 0)  -->
<svg version="1.1" id="Layer_1" xmlns="http://www.w3.org/2000/svg" xmlns:xlink="http://www.w3.org/1999/xlink" x="0px" y="0px"
	 viewBox="5.1 2.9 38 45" xml:space="preserve">
    <style type="text/css">
        path{fill:#ffffff;fill-opacity:1;
        stroke-width:1.20000017;stroke-linecap:round;stroke-linejoin:miter;stroke-miterlimit:4;stroke-dasharray:none;stroke-dashoffset:0;
        stroke-opacity:1;}
	</style>
    <g>
<title>background</title>
  <rect fill="#26621b" id="canvas_background" height="58" width="37" y="-4" x="5.5"/>
 </g>
<g transform="translate(0,-1003)">
 
<path d="m 7.3935247,1007.0624 0,2.8184 1.2832031,0 0,-2.8223 z
    m 2.4824216,0 0,2.8242 0.7187497,0 c 0.831073,-0.029 0.826958,1.234 -0.0039,1.1992 l -0.7148437,0 0,2.8007 0.7187497,0 c 0.831081,-0.029 0.826966,1.234 -0.0039,1.1992 l -0.7148437,0 0,2.8008 0.7187497,0 c 0.831085,-0.029 0.82697,1.234 -0.0039,1.1992 l -0.7148437,0 0,2.8008 0.7187497,0 c 0.831085,-0.029 0.82697,1.234 -0.0039,1.1992 l -0.7148437,0 0,2.8008 0.7187497,0 c 0.831085,-0.029 0.82697,1.234 -0.0039,1.1992 l -0.7148437,0 0,2.8008 0.7187497,0 c 0.831085,-0.029 0.82697,1.234 -0.0039,1.1992 l -0.7148437,0 0,2.8008 0.7187497,0 c 0.831085,-0.029 0.82697,1.234 -0.0039,1.1992 l -0.7148437,0 0,2.8008 0.7187497,0 c 0.831085,-0.029 0.82697,1.234 -0.0039,1.1992 l -0.7148437,0 0,2.8008 0.7187497,0 c 0.831085,-0.029 0.82697,1.234 -0.0039,1.1992 l -0.7148437,0 0,2.8008 0.7187497,0 c 0.831085,-0.029 0.82697,1.234 -0.0039,1.1992 l -0.7148437,0 0,2.5762 30.7304687,0 0,-42.5996 z m 5.3046877,3.2305 19.9375,0 c 0.331052,2e-4 0.59936,0.2685 0.599609,0.5996 l 0,2.0039 3.029297,2.1113 c 0.273809,0.1906 0.339615,0.5679 0.146484,0.8399 l -2.097656,2.959 -0.753906,1.0625 -14.650391,20.6562 -6.902344,3.9004 1.378907,-7.7617 12.43164,-17.5449 -13.11914,0 c -0.331816,-3e-4 -0.600441,-0.2698 -0.59961,-0.6016 l 0,-7.625 c 2.49e-4,-0.3311 0.268558,-0.5994 0.59961,-0.5996 z
    m -7.7871093,0.7891 0,2.7988 1.2832031,0 0,-2.8008 z 
    m 8.3867183,0.4121 0,6.4238 13.371094,0 1.339844,-1.8906 0,0 0.265625,-0.375 0.5,-0.7051 2.105468,-2.9668 c 0.113257,-0.1609 0.297809,-0.2539 0.494141,-0.2539 0.121089,0 0.238881,0.039 0.337891,0.1094 l 0.324218,0.2265 0,-0.5664 z 
    m 18.214844,1.664 -1.753906,2.4727 3.570312,2.4883 1.753906,-2.4727 z 
    m -26.6015623,1.9239 0,2.7988 1.2832031,0 0,-2.8008 z 
    m 24.1542963,1.5292 -0.07813,0.1094 -14.097656,19.8965 1.283203,0.8945 14.183594,-20 z 
    m 2.277344,1.5879 -14.185547,19.9981 1.292969,0.9023 14.130859,-19.9238 0.05273,-0.076 z 
    m -26.4316403,0.8829 0,2.7988 1.2832031,0 0,-2.8008 z 
    m 0,4 0,2.7988 1.2832031,0 0,-2.8008 z 
    m 0,4 0,2.7988 1.2832031,0 0,-2.8008 z 
    m 0,4 0,2.7988 1.2832031,0 0,-2.8008 z 
    m 0,4 0,2.7988 1.2832031,0 0,-2.8008 z 
    m 9.5019523,2.664 -0.779296,4.3828 3.902343,-2.2051 z 
    m -9.5019523,1.336 0,2.7988 1.2832031,0 0,-2.8008 z 
    m 0,4 0,2.7988 1.2832031,0 0,-2.8008 z 
    m 0,4 0,2.58 1.2832031,0 0,-2.5781 z"/>
</g>
</svg>