<svg xmlns="http://www.w3.org/2000/svg" width="105" height="56" fill="none" viewBox="0 0 105 56">
    <path fill="#99774E" d="M13.345 47.328V34.91c43.065.471 67.13-2.514 87.352-14.28v1.242C72.512 38.703 51.325 45.267 13.345 47.328z" filter="url(#a)"/>
    <path stroke="#26621B" stroke-width="1.21" d="M0-.605h17.029" transform="matrix(-.78368 .63233 -.64297 -.77498 13.345 3.59)"/>
    <path stroke="#26621B" stroke-width="1.21" d="M0-.605h15.664" transform="matrix(.78368 .63233 .64297 -.77498 14.559 3.59)"/>
    <path stroke="#26621B" stroke-width="1.21" d="M0-.605h12.731" transform="matrix(-.76238 .65786 -.66832 -.75323 13.345 7.179)"/>
    <path stroke="#26621B" stroke-width="1.21" d="M0-.605h12.05" transform="matrix(.76238 .65786 .66832 -.75323 14.559 7.179)"/>
    <path stroke="#26621B" stroke-width="1.21" d="M0-.605h8.461" transform="scale(-1.01396 -.99994) rotate(-45 -19.58 10.503)"/>
    <path stroke="#26621B" stroke-width="1.21" d="M0-.605h17.029" transform="matrix(-.78368 .63233 -.64297 -.77498 13.345 15.554)"/>
    <path stroke="#26621B" stroke-width="1.21" d="M0-.605h12.731" transform="matrix(-.76238 .65786 -.66832 -.75323 13.345 19.143)"/>
    <path stroke="#26621B" stroke-width="1.21" d="M0-.605h8.461" transform="scale(-1.01396 -.99994) rotate(-45 -34.023 4.52)"/>
    <path stroke="#26621B" stroke-width="1.21" d="M0-.605h7.832" transform="scale(1.01396 -.99994) rotate(-45 -5.82 -22.716)"/>
    <path stroke="#26621B" stroke-width="1.21" d="M0-.605h12.049" transform="matrix(.8055 .60428 -.60409 .80565 13.345 15.776)"/>
    <path stroke="#26621B" stroke-width="1.21" d="M0-.605h12.731" transform="matrix(.76238 .65786 .66832 -.75323 14.559 19.143)"/>
    <path stroke="#26621B" stroke-width="1.21" d="M0-.605h8.461" transform="scale(1.01396 -.99994) rotate(-45 -20.263 -28.699)"/>
    <path stroke="#26621B" stroke-width="1.21" d="M0-.605h17.029" transform="matrix(-.78368 .63233 -.64297 -.77498 13.345 26.322)"/>
    <path stroke="#26621B" stroke-width="1.21" d="M0-.605h12.731" transform="matrix(-.76238 .65786 -.66832 -.75323 13.345 29.911)"/>
    <path stroke="#26621B" stroke-width="1.21" d="M0-.605h8.461" transform="scale(-1.01396 -.99994) rotate(-45 -47.022 -.864)"/>
    <path stroke="#26621B" stroke-width="1.21" d="M0-.605h17.029" transform="matrix(.78368 .63233 .64297 -.77498 14.559 26.322)"/>
    <path stroke="#26621B" stroke-width="1.21" d="M0-.605h12.731" transform="matrix(.76238 .65786 .66832 -.75323 14.559 29.911)"/>
    <path stroke="#26621B" stroke-width="1.21" d="M0-.605h8.461" transform="matrix(.71698 .70706 .71698 -.70706 14.559 33.5)"/>
    <path fill="#000" d="M36.479 15.252c-.14.52-.441.78-.904.78-.394 0-.705-.26-.933-.78-.476-.99-.958-1.665-1.447-2.027-.76-.647-1.71-.97-2.845-.97-1.263 0-2.329.364-3.198 1.094-.87.73-1.516 1.662-1.941 2.798a10.127 10.127 0 0 0-.628 3.55c0 1.725.456 3.308 1.37 4.749.914 1.433 2.186 2.15 3.816 2.15 1.092 0 1.936-.298 2.532-.894.47-.495.704-1.444.704-2.846 0-.57-.035-.983-.105-1.237a.8.8 0 0 0-.466-.543c-.241-.114-.634-.17-1.18-.17-.685 0-1.17-.055-1.456-.163-.28-.114-.419-.358-.419-.732 0-.654.584-.98 1.751-.98h3.826c.863 0 1.497.053 1.904.161.26.095.39.314.39.657 0 .101-.038.466-.114 1.094l-.153 1.675c0 .806.09 1.574.267 2.303.057.14.085.308.085.505 0 .723-.96 1.453-2.883 2.189-1.77.622-3.395.932-4.873.932-1.796 0-3.423-.349-4.882-1.047-1.46-.704-2.611-1.728-3.455-3.073-.838-1.346-1.256-2.922-1.256-4.73 0-1.847.438-3.471 1.313-4.873.882-1.409 2.084-2.494 3.607-3.255 1.523-.768 3.195-1.152 5.016-1.152.913 0 1.855.111 2.826.334.977.222 1.818.539 2.522.951.482.267.819.555 1.009.866.133.286.2.987.2 2.104v.58zm3.014 4.987c0-.552-.032-.926-.095-1.123-.057-.197-.197-.368-.419-.514-.285-.19-.428-.396-.428-.619 0-.228.13-.409.39-.542.286-.197 1.066-.419 2.341-.666.064-.133.337-.2.819-.2.552 0 .904.165 1.056.495.153.323.229.809.229 1.456v5.425c0 .83.092 1.481.276 1.95.19.464.631.695 1.323.695.691 0 1.275-.285 1.75-.856.286-.336.429-.949.429-1.837V20.24c0-.476-.029-.819-.086-1.028-.057-.215-.209-.419-.457-.609-.26-.21-.39-.416-.39-.619 0-.247.118-.428.352-.542.33-.203 1.11-.425 2.342-.666.552-.108.913-.162 1.085-.162.52 0 .86.184 1.018.552v7.756c0 .673.038 1.114.114 1.323.095.178.28.333.552.467.387.203.58.437.58.704 0 .336-.117.552-.351.647-.229.089-.54.133-.933.133h-2.065c-.559 0-.923-.092-1.095-.276-.171-.184-.301-.574-.39-1.17-1.123 1.199-2.474 1.798-4.054 1.798-1.542 0-2.684-.6-3.426-1.798-.311-.4-.467-1.257-.467-2.57v-3.94zm14.683-6.814c0-.59.231-1.07.694-1.437a2.498 2.498 0 0 1 1.6-.552c.64 0 1.189.165 1.646.495.463.33.694.799.694 1.408 0 .571-.247 1.028-.742 1.37a2.85 2.85 0 0 1-1.637.505 2.675 2.675 0 0 1-1.551-.485c-.47-.33-.704-.765-.704-1.304zm.742 8.023c0-.832-.029-1.415-.086-1.752-.076-.336-.307-.621-.694-.856a21.993 21.993 0 0 0-.305-.2.905.905 0 0 1-.21-.2.441.441 0 0 1-.076-.266c0-.286.124-.482.372-.59.253-.114.612-.229 1.075-.343 1.313-.444 2.25-.666 2.808-.666.412 0 .675.187.79.561.12.375.18.955.18 1.742v6.32c0 .621.026 1.037.076 1.246.02.02.175.15.467.39.292.184.438.39.438.619 0 .495-.302.742-.905.742h-4.016c-.596 0-.894-.247-.894-.742 0-.247.142-.454.428-.619.254-.19.396-.32.428-.39.083-.21.124-.625.124-1.247v-3.75zM69.78 15.1c0-.831-.025-1.43-.076-1.799-.083-.336-.317-.622-.704-.857-.387-.215-.58-.434-.58-.656 0-.273.126-.463.38-.571.26-.108.612-.22 1.056-.333 1.428-.463 2.364-.695 2.808-.695.412 0 .675.19.79.571.12.38.18.968.18 1.76v12.401c0 .673.042 1.114.124 1.323.076.153.244.308.505.467.418.19.628.425.628.704 0 .336-.118.552-.352.647-.229.089-.543.133-.943.133h-2.379c-.552 0-.891-.092-1.018-.276-.12-.184-.21-.587-.267-1.208-.73 1.224-1.897 1.836-3.502 1.836-1.593 0-2.909-.558-3.95-1.675-1.034-1.123-1.55-2.5-1.55-4.13 0-1.142.256-2.183.77-3.122a5.74 5.74 0 0 1 2.16-2.227c.927-.545 1.964-.818 3.113-.818.977 0 1.912.26 2.807.78V15.1zm0 5.691c0-.768-.168-1.355-.504-1.76-.406-.49-.94-.733-1.6-.733-.945 0-1.624.447-2.036 1.341-.412.889-.619 1.869-.619 2.941 0 1.053.19 1.993.572 2.817.38.825 1.034 1.238 1.96 1.238.819 0 1.43-.324 1.837-.971.26-.406.39-.977.39-1.713v-3.16zm11.684 4.207c0 .653.038 1.081.115 1.284.082.172.263.314.542.429.368.19.552.425.552.704 0 .343-.114.558-.343.647-.222.089-.536.133-.942.133h-3.711c-.406 0-.724-.044-.952-.133-.222-.095-.333-.31-.333-.647 0-.28.184-.514.552-.704.279-.115.46-.257.542-.429.077-.203.115-.63.115-1.284v-4.369c0-.133-.051-.34-.153-.618-.057-.26-.142-.441-.257-.543-.114-.108-.314-.225-.6-.352-.418-.19-.627-.45-.627-.78 0-.394.39-.759 1.17-1.095 1.472-.444 2.303-.666 2.494-.666.45 0 .751.213.904.638.158.418.314 1.024.466 1.817a5.41 5.41 0 0 1 1.304-1.722c.552-.489 1.142-.733 1.77-.733.533 0 .965.165 1.295.495.336.323.504.745.504 1.266 0 .412-.114.79-.343 1.132-.222.336-.523.505-.904.505-.222 0-.501-.051-.837-.153-.33-.108-.584-.162-.762-.162-.463 0-.828.299-1.094.895-.311.558-.466 1.402-.466 2.532v1.913z"/>
    <path stroke="#000" stroke-width="1.21" d="M13.95 47.328V3.641"/>
    <defs>
        <filter id="a" width="95.957" height="35.303" x="9.043" y="20.63" color-interpolation-filters="sRGB" filterUnits="userSpaceOnUse">
            <feFlood flood-opacity="0" result="BackgroundImageFix"/>
            <feColorMatrix in="SourceAlpha" values="0 0 0 0 0 0 0 0 0 0 0 0 0 0 0 0 0 0 127 0"/>
            <feOffset dy="4.273"/>
            <feGaussianBlur stdDeviation="2.136"/>
            <feColorMatrix values="0 0 0 0 0 0 0 0 0 0 0 0 0 0 0 0 0 0 0.25 0"/>
            <feBlend in2="BackgroundImageFix" result="effect1_dropShadow"/>
            <feBlend in="SourceGraphic" in2="effect1_dropShadow" result="shape"/>
        </filter>
    </defs>
</svg>
